<?xml version="1.0" ?><svg viewBox="0 0 23.86 17.23" xmlns="http://www.w3.org/2000/svg"><title/><g data-name="Camada 2" id="Camada_2"><g data-name="Camada 1" id="Camada_1-2"><path d="M13.53,6.86a6,6,0,0,0-1.24-.39,6.81,6.81,0,0,1-.86-.26A1.14,1.14,0,0,1,11,5.92a.58.58,0,0,1-.14-.39A.6.6,0,0,1,11.13,5a1.35,1.35,0,0,1,.76-.18,1.33,1.33,0,0,1,.73.19.71.71,0,0,1,.35.47.25.25,0,0,0,.25.16h.83a.18.18,0,0,0,.13-.05.18.18,0,0,0,.05-.13A1.4,1.4,0,0,0,14,4.77a2,2,0,0,0-.62-.6,2.42,2.42,0,0,0-1-.34V3.21A.2.2,0,0,0,12.2,3h-.54a.21.21,0,0,0-.15.06.2.2,0,0,0-.06.15v.6a2.3,2.3,0,0,0-1.35.58A1.54,1.54,0,0,0,9.6,5.55a1.42,1.42,0,0,0,.48,1.16,3.73,3.73,0,0,0,1.52.65q.62.17.94.28a1.31,1.31,0,0,1,.48.28.53.53,0,0,1,.16.39.64.64,0,0,1-.31.56,1.66,1.66,0,0,1-.92.21,1.56,1.56,0,0,1-.85-.2.94.94,0,0,1-.41-.5.4.4,0,0,0-.11-.13.28.28,0,0,0-.16,0H9.62a.19.19,0,0,0-.14.06.18.18,0,0,0-.06.13,1.48,1.48,0,0,0,.25.76,1.85,1.85,0,0,0,.68.6,2.81,2.81,0,0,0,1.08.31v.61a.2.2,0,0,0,.06.15.21.21,0,0,0,.15.06h.54a.2.2,0,0,0,.21-.21v-.61a2.61,2.61,0,0,0,1.48-.57,1.56,1.56,0,0,0,.55-1.23,1.52,1.52,0,0,0-.22-.85A1.61,1.61,0,0,0,13.53,6.86Z"/><path d="M23,14.09V1.5A1.5,1.5,0,0,0,21.49,0H2.37A1.5,1.5,0,0,0,.87,1.5V14.09a1.67,1.67,0,0,0,.81,3.14H22.18A1.67,1.67,0,0,0,23,14.09ZM1.87,1.5a.5.5,0,0,1,.5-.5H21.49a.5.5,0,0,1,.5.5V13.88H1.87ZM22.18,16.23h-8a.49.49,0,0,0,.21-.4.5.5,0,0,0-.5-.5h-4a.5.5,0,0,0-.5.5.49.49,0,0,0,.21.4h-8a.68.68,0,1,1,0-1.35H22.18a.68.68,0,1,1,0,1.35Z"/></g></g></svg>